<svg height="71pt" preserveAspectRatio="xMidYMid meet" viewBox="0 0 116 71" width="116pt" xmlns="http://www.w3.org/2000/svg"><g transform="matrix(.1 0 0 -.1 0 71)"><path d="m31 645c-61-70-29-112 99-128 8-1 19-22 26-47l12-45 1 73 1 74-49-7c-92-12-118 14-76 77 32 48 26 49-14 3z"/><path d="m1115 644c41-66 17-92-76-79l-49 7 1-74 1-73 12 45c7 25 18 46 26 47 90 11 130 34 130 74 0 10-16 36-36 57l-35 37z"/><path d="m200 485c0-57 4-95 10-95s10 38 10 95-4 95-10 95-10-38-10-95z"/><path d="m238 488c3-122 11-125 11-4 0 53-3 96-7 96s-6-41-4-92z"/><path d="m905 485c0-52 3-95 8-95 4 0 7 20 7 45 0 35 4 45 16 45 13 0 15-9 12-45-2-25 0-45 4-45s8 43 10 95c2 59-1 95-7 95s-9-19-7-45c3-36 1-45-12-45-12 0-16 10-16 45 0 25-3 45-7 45-5 0-8-43-8-95z"/><path d="m280 558c0-2-2-42-3-91-1-64 1-87 11-87 9 0 12 25 12 90 0 53-4 90-10 90-5 0-10-1-10-2z"/><path d="m320 558c0-2-2-42-3-91-2-84-1-87 21-87 18 0 22 5 21 28l-1 27-8-25c-5-17-8 3-9 63-1 51-5 87-11 87-5 0-10-1-10-2z"/><path d="m380 555c-1-3-1-42-1-87-1-81 0-83 23-83 16 0 24 6 26 23 2 12-1 22-7 22-5 0-12-10-14-22-2-13-5 16-6 65 0 50-5 87-11 87-5 0-10-2-10-5z"/><path d="m427 554c-3-3-2-17 4-31 5-13 9-51 9-84 0-47 3-59 16-59 11 0 14 6 9 20-5 16 5 101 17 135 2 6-1 11-7 13-5 2-13-7-17-20-6-22-6-21-7 5s-10 34-24 21z"/><path d="m500 546c0-8 5-18 10-21 6-3 10 1 10 9s-4 18-10 21c-5 3-10-1-10-9z"/><path d="m533 544c-3-9-1-35 6-58 19-61 25-104 12-86-5 8-8 17-5 21 2 4 0 10-6 14s-10-6-10-24c0-24 4-31 20-31 31 0 35 27 15 85-9 29-15 59-12 66 3 8 6 4 6-9 1-13 5-21 9-18 5 3 8 15 7 28-2 28-32 36-42 12z"/><path d="m629 558c0-2-2-42-2-91-2-61 1-87 10-87 7 0 14 18 16 43l4 42 1-42c1-24 6-43 11-43 14 0 11 163-3 172-10 7-35 11-37 6zm28-65c-3-10-5-2-5 17s2 27 5 18c2-10 2-26 0-35z"/><path d="m716 552c-3-6-9-32-11-59-3-26-8-63-10-80-2-18 0-33 6-33 5 0 9 9 9 20s5 20 10 20c6 0 10-9 10-20s4-20 10-20 7 32 3 83c-5 80-14 109-27 89z"/><path d="m770 558c0-2-2-42-3-91-1-60 2-87 10-87 7 0 10 15 7 43-3 31-2 37 5 22 5-11 10-30 10-42 1-13 6-23 11-23 6 0 10 33 10 80v85c0 3-3 4-7 3-4-2-6-14-5-28 2-22 1-21-12 8-12 26-25 41-26 30z"/><path d="m845 547c-3-7-5-47-3-88 2-61 6-74 21-77 13-3 17 3 16 30l-1 33-8-30c-5-21-8-7-8 50 0 56 2 73 8 55 9-24 9-24 7 4-2 32-23 47-32 23z"/><path d="m430 304c0-8 5-12 10-9 6 3 10 10 10 16 0 5-4 9-10 9-5 0-10-7-10-16z"/><path d="m560 304c0-8 5-12 10-9 6 3 10 10 10 16 0 5-4 9-10 9-5 0-10-7-10-16z"/><path d="m460 299c0-5 5-7 10-4 6 3 10 8 10 11 0 2-4 4-10 4-5 0-10-5-10-11z"/><path d="m595 300c-3-5-1-10 4-10 6 0 11 5 11 10 0 6-2 10-4 10-3 0-8-4-11-10z"/><path d="m395 166c-8-53-2-66 31-66 14 0 37-12 52-27 25-26 33-28 103-28 68 0 78 3 108 28 20 17 40 25 51 22 29-9 43 18 33 67-7 34-13 44-31 46-26 4-29-14-6-46 9-13 14-26 11-29-23-22-223-31-290-12-34 9-38 13-32 32 12 40 10 51-7 55-13 2-18-7-23-42z"/></g></svg>