<svg height="16pt" preserveAspectRatio="xMidYMid meet" viewBox="0 0 59 16" width="59pt" xmlns="http://www.w3.org/2000/svg"><g transform="matrix(.1 0 0 -.1 0 16)"><path d="m13 80c0-41 2-58 4-38 2 21 2 55 0 76-2 20-4 3-4-38z"/><path d="m543 80c0-41 2-58 4-38 2 21 2 55 0 76-2 20-4 3-4-38z"/><path d="m573 80c0-41 2-58 4-38 2 21 2 55 0 76-2 20-4 3-4-38z"/><path d="m42 115c0-16 2-22 5-12 2 9 2 23 0 30-3 6-5-1-5-18z"/><path d="m267 133c-3-5-5-36-4-70 0-48 4-63 15-63 14 0 13 42-3 100-5 19-4 22 4 10 9-13 11-13 11 2 0 19-16 33-23 21zm10-115c-3-8-6-5-6 6-1 11 2 17 5 13 3-3 4-12 1-19z"/><path d="m336 133c-3-4-6-35-6-69 0-56 2-63 19-61 17 1 20 9 20 63 0 43-4 64-14 67-7 3-16 3-19 0zm11-45c-3-7-5-2-5 12s2 19 5 13c2-7 2-19 0-25zm0-60c-3-7-5-2-5 12s2 19 5 13c2-7 2-19 0-25z"/><path d="m496 133c-3-3-6-35-6-70 0-49 3-63 15-63 9 0 15 9 14 23 0 21-1 21-9 2-6-14-9-3-9 40-1 42 2 56 9 45 8-13 10-13 10 2 0 19-14 31-24 21z"/><path d="m65 65c0-36 3-65 8-65 4 0 7 29 7 65s-3 65-7 65c-5 0-8-29-8-65z"/><path d="m95 65c0-55 3-65 18-65 11 0 17 7 16 23 0 21-1 21-9 2-6-14-9-2-9 43-1 34-4 62-8 62-5 0-8-29-8-65z"/><path d="m140 65c0-58 2-65 20-65 14 0 20 6 19 23 0 21-1 21-9 2-6-14-9-2-9 43-1 34-5 62-11 62s-10-28-10-65z"/><path d="m187 68c3-35 7-65 9-67 8-9 11 6 17 67 5 55 3 62-13 62s-18-7-13-62z"/><path d="m235 120c3-5 8-10 11-10 2 0 4 5 4 10 0 6-5 10-11 10-5 0-7-4-4-10z"/><path d="m386 93c-3-21-6-51-5-68 0-26 2-27 9-10s9 17 9 3c1-30 21-20 21 10 0 42-12 102-20 102-4 0-10-17-14-37z"/><path d="m434 65c0-36 3-65 8-65 4 0 8 10 9 23 1 21 1 21 9-3 7-23 8-23 10 10 6 97 6 100-15 100-18 0-20-7-21-65z"/><path d="m42 40c0-19 2-27 5-17 2 9 2 25 0 35-3 9-5 1-5-18z"/></g></svg>