<?xml version="1.0" standalone="no"?>
<!DOCTYPE svg PUBLIC "-//W3C//DTD SVG 20010904//EN"
 "http://www.w3.org/TR/2001/REC-SVG-20010904/DTD/svg10.dtd">
<svg version="1.0" xmlns="http://www.w3.org/2000/svg"
 width="117.000000pt" height="31.000000pt" viewBox="0 0 117.000000 31.000000"
 preserveAspectRatio="xMidYMid meet">
<metadata>
Created by potrace 1.15, written by Peter Selinger 2001-2017
</metadata>
<g transform="translate(0.000000,31.000000) scale(0.100000,-0.100000)"
fill="#000000" stroke="none">
<path d="M10 155 l0 -155 49 0 c30 0 51 5 54 13 4 9 6 9 6 0 1 -10 32 -13 121
-13 l120 0 1 38 c3 86 -17 102 -31 25 -7 -37 -5 140 2 182 2 16 -3 21 -28 23
l-31 3 3 -98 c2 -54 1 -90 -2 -80 -8 24 -23 21 -28 -5 -13 -59 -14 -58 -10 2
2 36 5 90 6 120 l3 55 -60 0 c-52 0 -62 3 -73 23 -10 18 -21 22 -57 22 l-45 0
0 -155z"/>
<path d="M1034 287 c5 -21 3 -23 -29 -19 -29 4 -36 0 -44 -19 l-10 -24 0 23
c-1 20 -6 22 -55 22 l-53 0 5 -116 c4 -87 2 -115 -7 -110 -6 4 -11 26 -11 49
0 23 -3 73 -7 110 -6 66 -7 68 -32 65 -26 -3 -26 -5 -37 -118 -11 -112 -21
-98 -15 22 4 78 -9 98 -62 98 l-42 0 0 -135 0 -135 127 0 c123 0 127 1 131 23
l4 22 2 -22 c1 -16 7 -23 21 -23 18 0 20 7 21 58 1 31 3 46 6 32 2 -14 6 -40
9 -58 l5 -32 99 0 100 0 0 155 0 155 -66 0 c-64 0 -66 -1 -60 -23z"/>
<path d="M350 258 c0 -7 7 -49 16 -93 8 -46 12 -98 9 -123 -6 -42 -6 -42 25
-42 31 0 32 0 25 40 -9 53 12 180 30 180 8 0 11 -7 8 -20 -4 -14 0 -20 11 -20
9 0 16 6 16 13 0 7 4 6 10 -4 11 -20 13 -55 4 -131 l-6 -58 40 0 c43 0 52 11
52 58 -1 15 -7 44 -14 64 -8 21 -10 35 -5 33 10 -7 15 30 10 78 -3 33 -6 37
-30 37 -15 0 -32 -5 -39 -12 -8 -8 -12 -8 -12 -1 0 7 -28 11 -75 12 -54 1 -75
-2 -75 -11z"/>
</g>
</svg>
