<svg height="31pt" preserveAspectRatio="xMidYMid meet" viewBox="0 0 117 31" width="117pt" xmlns="http://www.w3.org/2000/svg"><g transform="matrix(.1 0 0 -.1 0 31)"><path d="m25 155v-145h32c42 0 57 27 49 89-7 57-7 55 0 112 8 62-7 89-49 89h-32zm55 70c0-51-3-65-15-65s-15 14-15 65 3 65 15 65 15-14 15-65zm0-140c0-51-3-65-15-65s-15 13-15 58c0 32 3 62 7 65 17 17 23 2 23-58z"/><path d="m1055 155c0-122 2-145 15-145 12 0 15 14 15 67 0 54 3 68 15 68s15-14 15-68c0-53 3-67 15-67 13 0 15 23 15 145s-2 145-15 145c-12 0-15-14-15-67 0-54-3-68-15-68s-15 14-15 68c0 53-3 67-15 67-13 0-15-23-15-145z"/><path d="m137 133c1-107 4-127 17-129 14-2 16 14 16 127 0 116-2 129-17 129-16 0-18-12-16-127z"/><path d="m196 133 1-128h34c31 0 34 3 37 34 2 18-1 38-7 44-8 8-11 2-11-20 0-18-5-35-11-39-8-4-10 30-7 115 3 115 2 121-17 121s-20-6-19-127z"/><path d="m286 133 1-128h34c31 0 34 3 37 34 2 18-1 38-7 44-8 8-11 2-11-20 0-18-5-35-11-39-8-4-10 30-7 115 3 115 2 121-17 121s-20-6-19-127z"/><path d="m360 239c6-11 14-69 17-128 5-96 8-107 25-108 16-2 18 3 12 31-6 36 13 179 28 209 7 13 4 17-12 17-17 0-20-6-20-42 0-23-3-39-6-35-3 3-6 22-6 41 0 31-3 36-24 36-22 0-23-2-14-21z"/><path d="m460 246c0-8 4-17 10-21 5-3 6-13 3-22-4-11-3-14 5-9 18 11 15 66-3 66-8 0-15-6-15-14z"/><path d="m514 245c-9-23 3-100 21-135 17-33 21-95 5-85-5 3-10 19-10 36 0 16-4 29-10 29-5 0-10-18-10-39 0-31 4-41 20-46 51-16 63 39 30 132-21 61-27 118-10 108 6-3 10-20 10-38 0-22 3-28 11-20 6 6 9 23 7 39-2 23-9 30-31 32-18 2-29-2-33-13z"/><path d="m647 133c1-117 3-128 20-128 16 0 18 7 15 58-3 35 0 57 7 57 5 0 11-26 13-57 2-44 7-58 18-58 8 0 14 7 12 14-2 8-3 58-3 110 0 126-2 131-47 131h-37zm53 57c0-27-4-50-10-50-5 0-10 23-10 50 0 28 5 50 10 50 6 0 10-22 10-50z"/><path d="m766 168c-4-51-9-110-12-131-5-30-3-36 9-31 9 3 15 16 14 31-1 14 4 28 11 31 10 3 13-5 10-29-2-28 0-34 17-34 14 0 19 6 17 20-3 27-21 207-22 223 0 6-9 12-19 12-17 0-20-11-25-92z"/><path d="m857 133c1-96 4-128 14-128 9 0 12 20 12 70l-1 70 12-63c13-63 21-80 32-70 3 3 6 60 8 127 2 95 0 121-10 121s-12-12-9-47c6-50-7-37-19 20-4 17-13 27-24 27-15 0-17-13-15-127z"/><path d="m966 244c-3-9-6-62-6-119 0-81 3-105 16-116 11-9 20-10 32-2 20 12 28 61 13 76-8 8-11 0-11-26 0-20-4-37-10-37s-10 43-10 110 4 110 10 110 10-14 10-31 4-28 10-24c6 3 10 22 10 41 0 31-3 34-29 34-17 0-31-6-35-16z"/></g></svg>