<svg height="26pt" preserveAspectRatio="xMidYMid meet" viewBox="0 0 98 26" width="98pt" xmlns="http://www.w3.org/2000/svg"><g transform="matrix(.1 0 0 -.1 0 26)"><path d="m27 143c1-64-2-113-9-120-8-10-6-13 8-13 17 0 19 7 16 55-3 45-1 55 12 55s16-11 16-56c0-33 4-53 10-49 5 3 8 54 7 118l-2 112-30 3-30 3zm43 41c0-73-24-70-28 4-2 42 0 52 12 52 13 0 16-12 16-56z"/><path d="m890 130c0-89 3-120 13-120 9 0 12 31 12 120s-3 120-12 120c-10 0-13-31-13-120z"/><path d="m945 130c0-111 1-120 19-120 14 0 16 3 8 13-7 8-10 55-9 120 1 67-2 107-8 107s-10-46-10-120z"/><path d="m116 113c1-77 5-108 14-108s13 31 14 108c1 89-2 107-14 107s-15-18-14-107z"/><path d="m167 113 2-108h28c24 0 28 4 31 33 2 18-1 32-7 32s-11-11-11-25-5-25-11-25c-7 0-10 32-7 100 2 84 1 100-12 100s-15-18-13-107z"/><path d="m240 110v-110h30c28 0 30 2 29 38-2 30-3 32-6 10-2-16-9-28-15-28s-9 36-6 100c3 90 1 100-14 100-16 0-18-12-18-110z"/><path d="m304 204c13-34 26-149 20-177-5-24-3-28 12-25 15 2 18 11 16 43-3 39 10 122 23 158 5 12 2 17-9 17-12 0-16-10-17-37 0-33-1-35-9-15-5 12-7 29-4 37 4 11 0 15-16 15s-20-4-16-16z"/><path d="m391 208c0-7 4-22 8-33 8-19 8-19 15 2 8 24 1 43-15 43-5 0-9-6-8-12z"/><path d="m437 213c-12-12-7-52 13-110 22-64 25-83 10-83-5 0-10 14-10 32 0 23-3 29-11 21-6-6-9-23-7-39 2-23 8-29 28-29 21 0 26 5 28 31 2 17-6 58-17 90-24 66-25 74-11 74 6 0 10-12 10-26s4-23 10-19c6 3 10 19 10 36 0 24-4 29-23 29-13 0-27-3-30-7z"/><path d="m547 113c2-87 5-109 17-111 13-3 14 5 9 47-4 34-2 51 5 51 6 0 12-21 14-47 2-25 8-48 15-50 9-3 12 20 11 89-1 108-8 128-46 128h-27zm43 46c0-24-4-38-10-34-5 3-10 22-10 41s5 34 10 34c6 0 10-18 10-41z"/><path d="m645 121c-9-121-9-115 5-119 6-2 11 4 10 14-4 33 0 45 10 39 6-4 8-15 5-25-6-19 9-35 23-26 4 2 3 51-3 108-8 83-13 103-27 106s-17-11-23-97z"/><path d="m725 110c0-66 4-109 10-107 5 2 8 25 6 51-2 33 1 46 8 42 6-4 11-19 12-34 0-15 4-36 9-47 13-32 19-3 22 108 2 72 0 97-9 97-8 0-14-14-14-32l-1-33-7 30c-3 16-13 31-21 33-13 2-15-15-15-108z"/><path d="m815 198c-3-13-5-59-3-102 2-63 7-81 21-90 21-13 37 5 37 42 0 31-18 27-23-5-2-16-4 15-4 67s2 83 4 68c6-39 25-35 21 5-2 24-8 33-25 35-16 2-24-3-28-20z"/></g></svg>